<?xml version="1.0" standalone="no"?>
<!DOCTYPE svg PUBLIC "-//W3C//DTD SVG 20010904//EN"
 "http://www.w3.org/TR/2001/REC-SVG-20010904/DTD/svg10.dtd">
<svg version="1.0" xmlns="http://www.w3.org/2000/svg"
 width="512.000000pt" height="512.000000pt" viewBox="0 0 512.000000 512.000000"
 preserveAspectRatio="xMidYMid meet">
<metadata>
Created by potrace 1.16, written by Peter Selinger 2001-2019
</metadata>
<g transform="translate(0.000000,512.000000) scale(0.100000,-0.100000)"
fill="#000000" stroke="none">
<path d="M2471 3433 l-1 -293 -165 0 -165 0 0 -54 c0 -29 5 -77 10 -106 67
-354 516 -462 740 -178 53 66 80 145 87 251 l6 87 -167 0 -166 0 -1 293 c-1
160 -4 282 -6 270 -4 -22 -9 -23 -83 -23 -74 0 -79 1 -83 23 -2 12 -5 -110 -6
-270z m309 -470 c0 -20 -44 -75 -80 -102 -57 -41 -126 -56 -190 -41 -59 14
-123 58 -150 103 -11 18 -20 35 -20 40 0 4 99 7 220 7 121 0 220 -3 220 -7z"/>
<path d="M230 3610 c-11 -16 -31 -51 -43 -77 l-22 -48 -3 -1336 -2 -1337 -30
-12 c-41 -17 -105 -89 -120 -134 -16 -49 -8 -203 13 -271 51 -159 193 -304
363 -368 l59 -22 2110 0 c2361 0 2153 -7 2283 72 118 71 212 186 256 312 24
71 33 224 16 277 -15 45 -79 117 -120 134 l-30 12 0 1313 c0 1305 0 1313 -21
1381 -12 38 -27 76 -35 85 -8 8 -14 20 -14 26 0 19 -30 23 -187 23 -150 0
-178 -3 -121 -14 14 -2 36 -9 47 -16 12 -6 21 -8 21 -5 0 18 101 -93 113 -124
18 -43 22 -422 19 -1793 l-2 -858 -2220 0 -2220 0 -2 858 c-1 471 0 1062 1
1312 3 418 4 458 21 490 23 43 110 133 110 113 0 -3 9 2 20 12 10 9 25 15 32
13 7 -3 22 -2 33 3 11 4 -51 8 -142 8 l-162 1 -21 -30z m4697 -2984 c23 -27
25 -35 19 -90 -14 -133 -105 -260 -232 -322 -63 -31 -85 -37 -163 -42 l-91 -5
0 167 0 166 -250 0 -250 0 0 -165 0 -165 -80 0 -80 0 0 165 0 165 -250 0 -250
0 0 -165 0 -165 -1407 2 -1408 3 -67 32 c-92 43 -160 110 -203 197 -60 123
-57 220 8 246 13 5 1016 8 2350 7 l2329 -2 25 -29z m-1297 -376 l0 -80 -80 0
-80 0 0 80 0 80 80 0 80 0 0 -80z m660 0 l0 -80 -80 0 -80 0 0 80 0 80 80 0
80 0 0 -80z"/>
<path d="M1035 3630 c3 -5 2 -10 -3 -10 -15 0 -42 -76 -42 -115 l0 -34 -198
-3 -199 -3 -35 -27 c-73 -55 -69 16 -66 -1229 l3 -1116 28 -36 c55 -73 -125
-67 2037 -67 2162 0 1982 -6 2037 67 l28 36 3 1116 c3 1245 7 1174 -66 1229
l-35 27 -199 3 -198 3 -1 27 c-1 55 -24 122 -41 122 -5 0 -6 5 -3 10 4 6 -42
10 -129 10 -75 0 -136 -2 -136 -5 0 -2 20 -13 45 -24 110 -49 124 -193 26
-268 -42 -32 -45 -33 -147 -33 l-104 0 -2 148 c-1 81 -2 155 -1 165 0 15 -11
17 -88 17 l-88 0 -3 -282 c-4 -274 -5 -285 -30 -361 -80 -239 -269 -418 -515
-489 -73 -21 -97 -23 -353 -23 -256 0 -280 2 -353 23 -246 71 -435 249 -514
487 -27 78 -27 87 -31 363 l-3 282 -88 0 c-77 0 -88 -2 -88 -17 1 -10 0 -84
-1 -165 l-2 -148 -103 0 c-99 0 -106 1 -144 29 -112 81 -90 229 42 287 27 12
15 13 -108 14 -90 0 -136 -4 -132 -10z m31 -373 c39 -53 123 -104 193 -117 30
-5 94 -10 142 -10 l89 0 0 -26 c0 -48 42 -189 81 -273 104 -222 317 -410 542
-478 l28 -8 -33 -65 -33 -64 -205 -69 c-113 -37 -241 -74 -285 -82 -194 -36
-343 -156 -407 -330 -20 -55 -22 -83 -26 -317 l-4 -258 -239 0 -239 0 0 1070
0 1070 183 0 182 -1 31 -42z m3384 -1027 l0 -1070 -239 0 -239 0 -4 258 c-4
252 -4 258 -31 326 -70 177 -219 294 -407 321 -25 3 -146 40 -270 81 l-225 74
-27 63 c-24 55 -25 62 -10 65 39 8 162 68 227 109 84 55 227 198 273 276 55
92 100 207 119 303 l18 91 120 5 c93 4 131 10 168 26 57 25 128 82 147 117
l13 25 184 0 183 0 0 -1070z m-1630 40 c47 -92 55 -78 -105 -174 -79 -47 -149
-86 -155 -86 -6 0 -76 39 -155 86 l-144 86 16 37 c8 20 20 48 26 64 l11 27
243 0 243 0 20 -40z m-520 -318 l165 -98 3 -182 2 -182 -205 0 -205 0 0 -166
0 -165 -47 3 -47 3 -103 379 c-57 208 -102 380 -101 381 4 3 361 123 368 124
3 0 79 -43 170 -97z m880 33 c96 -32 176 -59 178 -60 1 -1 -44 -173 -101 -381
l-103 -379 -47 -3 -47 -3 0 165 0 166 -205 0 -205 0 2 182 3 182 165 98 c91
54 170 96 175 94 6 -2 89 -29 185 -61z m-1495 -459 c52 -192 95 -353 95 -357
0 -5 -101 -9 -225 -9 l-225 0 0 235 c0 210 2 240 20 288 34 90 107 161 199
193 20 7 37 9 38 6 1 -4 45 -164 98 -356z m1949 320 c51 -30 97 -80 128 -139
22 -40 23 -55 26 -294 l3 -253 -225 0 c-124 0 -226 3 -226 8 0 4 44 167 97
363 l97 356 29 -8 c16 -4 48 -19 71 -33z m-744 -606 l0 -80 -330 0 -330 0 0
80 0 80 330 0 330 0 0 -80z"/>
<path d="M2007 3629 c-9 -6 -17 -7 -17 -4 0 4 -17 -3 -37 -16 -83 -49 -124
-105 -138 -186 l-7 -43 91 0 c84 0 91 2 91 20 0 29 39 60 75 60 34 0 75 -34
75 -63 0 -15 12 -17 91 -17 l91 0 -7 37 c-3 20 -13 54 -22 75 -17 43 -96 118
-124 118 -11 0 -19 4 -19 10 0 5 -10 9 -22 9 -13 -1 -41 1 -63 4 -23 3 -48 1
-58 -4z"/>
<path d="M3049 3636 c-2 -2 -20 -7 -39 -10 -71 -13 -90 -23 -133 -70 -47 -49
-62 -78 -72 -133 l-7 -43 91 0 c84 0 91 2 91 20 0 29 39 60 76 60 37 0 74 -32
74 -62 0 -16 10 -18 91 -18 l91 0 -7 43 c-15 90 -76 166 -155 192 -3 1 -18 7
-33 13 -28 12 -60 16 -68 8z"/>
</g>
</svg>
